# xmcd
#
# Track frame offsets:
#	150
#	16275
#	39300
#	59250
#	82350
#	89400
#	115050
#	146625
#
# Disc length: 2199 seconds
#
# Revision: 0
# Processed by: cddbd v1.4PL0 Copyright (c) Steve Scherf et al.
# Submitted via: dBpowerAMP V4.0
#
DISCID=67089508
DTITLE=Ten Years After - Watt
DYEAR=1975
DGENRE=Blues
TTITLE0=I'm Coming On
TTITLE1=My Baby Left Me
TTITLE2=Think About The Times
TTITLE3=I Say Yeah
TTITLE4=The Band With No Name
TTITLE5=Gonna Run
TTITLE6=She LIes In The Morning
TTITLE7=Sweet Little Sixteen
EXTD=
EXTT0=
EXTT1=
EXTT2=
EXTT3=
EXTT4=
EXTT5=
EXTT6=
EXTT7=
PLAYORDER=
